<svg width="108" height="108" viewBox="0 0 108 108" fill="none" xmlns="http://www.w3.org/2000/svg">
<g clip-path="url(#clip0_1_5344)">
<path opacity="0.2" d="M87.75 30.375V77.625H20.25V30.375H87.75Z" fill="#6669AE"/>
<path d="M97.875 27V20.25C97.873 18.4604 97.1611 16.7447 95.8957 15.4793C94.6303 14.2139 92.9146 13.502 91.125 13.5H16.875C15.0854 13.502 13.3697 14.2139 12.1043 15.4793C10.8389 16.7447 10.127 18.4604 10.125 20.25V27C10.127 28.7896 10.8389 30.5053 12.1043 31.7707C13.3697 33.0361 15.0854 33.748 16.875 33.75V74.25H13.5C12.6049 74.25 11.7464 74.6056 11.1135 75.2385C10.4806 75.8714 10.125 76.7299 10.125 77.625C10.125 78.5201 10.4806 79.3786 11.1135 80.0115C11.7464 80.6444 12.6049 81 13.5 81H50.625V88.3306C48.3732 89.1267 46.4753 90.6933 45.2667 92.7535C44.0582 94.8136 43.6169 97.2346 44.0208 99.5887C44.4247 101.943 45.6478 104.078 47.4739 105.618C49.3 107.157 51.6116 108.002 54 108.002C56.3884 108.002 58.7 107.157 60.5261 105.618C62.3522 104.078 63.5753 101.943 63.9792 99.5887C64.3831 97.2346 63.9418 94.8136 62.7333 92.7535C61.5247 90.6933 59.6268 89.1267 57.375 88.3306V81H94.5C95.3951 81 96.2536 80.6444 96.8865 80.0115C97.5194 79.3786 97.875 78.5201 97.875 77.625C97.875 76.7299 97.5194 75.8714 96.8865 75.2385C96.2536 74.6056 95.3951 74.25 94.5 74.25H91.125V33.75C92.9146 33.748 94.6303 33.0361 95.8957 31.7707C97.1611 30.5053 97.873 28.7896 97.875 27ZM54 101.25C53.3325 101.25 52.68 101.052 52.125 100.681C51.5699 100.31 51.1374 99.7833 50.8819 99.1666C50.6265 98.5499 50.5596 97.8713 50.6898 97.2166C50.8201 96.5619 51.1415 95.9605 51.6135 95.4885C52.0855 95.0165 52.6869 94.6951 53.3416 94.5648C53.9963 94.4346 54.6749 94.5015 55.2916 94.7569C55.9083 95.0124 56.4354 95.4449 56.8062 95.9999C57.1771 96.555 57.375 97.2075 57.375 97.875C57.374 98.7698 57.0181 99.6276 56.3854 100.26C55.7526 100.893 54.8948 101.249 54 101.25ZM16.875 20.25H91.125L91.1291 27H16.875V20.25ZM84.375 74.25H23.625V33.75H84.375V74.25Z" fill="#6669AE"/>
</g>
<defs>
<clipPath id="clip0_1_5344">
<rect width="108" height="108" fill="white"/>
</clipPath>
</defs>
</svg>
