<svg width="123" height="118" viewBox="0 0 123 118" fill="none" xmlns="http://www.w3.org/2000/svg">
<path fill-rule="evenodd" clip-rule="evenodd" d="M52.7142 19.2196C52.7142 16.4324 55.4709 13.5208 59.7559 13.5208C64.041 13.5208 66.7977 16.4324 66.7977 19.2196C66.7977 20.7549 66.2268 22.0813 65.2935 23.0554C64.7149 23.6592 64.0768 24.2629 63.3496 24.9512L62.9334 25.3458C62.0694 26.1655 61.1059 27.0944 60.2254 28.0878C58.8652 29.6218 57.3918 31.646 56.8516 34.1339C53.6362 34.6539 50.5107 35.8322 47.7612 37.6876L11.3958 62.2282C6.64496 65.4339 5.42254 70.5988 7.15279 74.926C8.85486 79.1828 13.2719 82.3541 18.9743 82.3541H30.7962C30.7488 84.1413 30.7488 86.1748 30.7488 88.4999C30.7488 97.7708 30.7488 102.406 33.751 105.286C36.7532 108.167 41.585 108.167 51.2488 108.167H71.749C81.4127 108.167 86.2445 108.167 89.2467 105.286C92.249 102.406 92.249 97.7708 92.249 88.4999C92.249 86.1748 92.249 84.1413 92.2013 82.3541H104.024C109.787 82.3541 114.223 79.1229 115.889 74.8144C117.582 70.4341 116.264 65.2401 111.397 62.0925L73.3054 37.4583C70.7732 35.8208 67.9442 34.7451 65.0306 34.2144C65.2904 33.8166 65.6338 33.3704 66.0812 32.8657C66.7285 32.136 67.4834 31.4013 68.3398 30.5885L68.7185 30.2301C69.4417 29.5462 70.2355 28.7953 70.9525 28.0466C73.2183 25.6823 74.4852 22.5639 74.4852 19.2196C74.4852 11.639 67.4947 6.14575 59.7559 6.14575C52.0172 6.14575 45.0265 11.639 45.0265 19.2196C45.0265 21.2561 46.7474 22.9071 48.8702 22.9071C50.9931 22.9071 52.7142 21.2561 52.7142 19.2196ZM91.2609 74.9791H104.024C106.629 74.9791 108.153 73.6167 108.681 72.2498C109.182 70.9543 108.928 69.3903 107.1 68.2078L69.0086 43.5736C66.5353 41.9742 63.5464 41.1672 60.5262 41.2008C57.5312 41.2343 54.594 42.0934 52.1843 43.7197L15.8188 68.26C14.0502 69.4537 13.8168 71 14.3303 72.2843C14.872 73.6393 16.3982 74.9791 18.9743 74.9791H31.7366C32.1797 73.6653 32.8214 72.6053 33.751 71.7134C36.7532 68.8332 41.585 68.8332 51.2488 68.8332H71.749C81.4127 68.8332 86.2445 68.8332 89.2467 71.7134C90.1764 72.6053 90.8181 73.6653 91.2609 74.9791Z" fill="#6669AE"/>
</svg>
