<svg width="108" height="108" viewBox="0 0 108 108" fill="none" xmlns="http://www.w3.org/2000/svg">
<g clip-path="url(#clip0_1_5327)">
<path d="M102.141 56.1085L107.916 29.9C108.348 27.9415 107.11 26.0023 105.151 25.5727C103.193 25.1358 101.256 26.3767 100.826 28.3351L95.6781 51.6948H72.5248C70.5207 51.6948 68.8959 53.3197 68.8959 55.3261C68.8959 57.3326 70.5207 58.9574 72.5248 58.9574H73.9L66.0806 77.469C65.3006 79.3195 66.1622 81.4459 68.0127 82.2259C68.4687 82.4203 68.9535 82.5139 69.4239 82.5139C70.8399 82.5139 72.184 81.6787 72.7696 80.2939L79.9073 63.4023L91.2284 63.4047L98.3589 80.2939C99.1437 82.1419 101.275 82.9987 103.116 82.2259C104.964 81.4459 105.828 79.3171 105.048 77.469L97.2309 58.9574H98.6061C100.301 58.955 101.769 57.7742 102.141 56.1085Z" fill="#6669AE"/>
<path d="M34.0999 58.955H35.4751C37.4792 58.955 39.104 57.3302 39.104 55.3237C39.104 53.3173 37.4792 51.6924 35.4751 51.6924H12.3218L7.17611 28.3351C6.7417 26.3767 4.80005 25.1334 2.85121 25.5727C0.895166 26.0023 -0.345661 27.9415 0.0863483 29.8999L5.86088 56.1085C6.22809 57.7718 7.70172 58.9574 9.40576 58.9574H10.781L2.96161 77.4738C2.1816 79.3218 3.04561 81.4459 4.89366 82.2259C6.7369 83.0035 8.86814 82.1395 9.65056 80.2939L16.7811 63.4047L28.1022 63.4023L35.2351 80.2939C35.8207 81.6787 37.1648 82.5139 38.5808 82.5139C39.0512 82.5139 39.5312 82.4203 39.992 82.2259C41.8401 81.4459 42.7041 79.317 41.9241 77.4738L34.0999 58.955Z" fill="#6669AE"/>
<path d="M59.67 75.249H57.6251V43.9403H77.1375C79.1416 43.9403 80.7688 42.3155 80.7688 40.3115C80.7688 38.3074 79.1416 36.6802 77.1375 36.6802H30.8549C28.8509 36.6802 27.2236 38.3074 27.2236 40.3115C27.2236 42.3131 28.8509 43.9403 30.8549 43.9403H50.3673V75.249H48.3225C46.3185 75.249 44.6936 76.8787 44.6936 78.8827C44.6936 80.8868 46.3185 82.514 48.3225 82.514H59.67C61.6788 82.514 63.3036 80.8868 63.3036 78.8827C63.3036 76.8787 61.6788 75.249 59.67 75.249Z" fill="#6669AE"/>
</g>
<defs>
<clipPath id="clip0_1_5327">
<rect width="108" height="108" fill="white"/>
</clipPath>
</defs>
</svg>
