<svg width="108" height="108" viewBox="0 0 108 108" fill="none" xmlns="http://www.w3.org/2000/svg">
<path d="M21.5999 4.32007C20.4119 4.32007 19.4399 5.29207 19.4399 6.48007V14.019L5.22694 24.1693C4.66534 24.5581 4.31991 25.2289 4.31991 25.9201V34.5601C4.31991 35.7481 5.29191 36.7201 6.47991 36.7201H53.9999C55.1879 36.7201 56.1599 35.7481 56.1599 34.5601V25.9201C56.1599 25.2289 55.8145 24.5581 55.2529 24.1693L41.0399 14.019V6.48007C41.0399 5.29207 40.0679 4.32007 38.8799 4.32007H21.5999ZM15.0946 47.5201C13.9088 47.5201 12.9388 48.4921 12.9388 49.6801V51.8401H4.31569C3.12985 51.8401 2.15991 52.8121 2.15991 54.0001V101.52C2.15991 102.708 3.12985 103.68 4.31569 103.68H55.7465C57.1051 103.68 58.2018 102.577 58.2018 101.216V54.1773C58.2018 52.8856 57.1583 51.8401 55.8688 51.8401H47.4229V49.9712C47.4229 48.6168 46.3282 47.5201 44.976 47.5201H15.0946ZM64.9855 51.8401C64.8408 51.8358 63.9173 51.8291 63.2348 52.5657C62.7056 53.1359 62.6507 53.8057 62.6399 54.0001V69.1201H105.84V54.0001C105.84 52.8121 104.87 51.8401 103.684 51.8401H99.1574H79.7596H64.9855ZM12.9388 60.4801H47.4271C48.6129 60.4801 49.5829 61.4521 49.5829 62.6401V92.8801C49.5829 94.0681 48.6129 95.0401 47.4271 95.0401H12.9388C11.753 95.0401 10.783 94.0681 10.783 92.8801V62.6401C10.783 61.4521 11.753 60.4801 12.9388 60.4801ZM71.1365 60.4801H97.0016C98.1875 60.4801 99.1574 61.4521 99.1574 62.6401C99.1574 63.8281 98.1875 64.8001 97.0016 64.8001H71.1365C69.9506 64.8001 68.9807 63.8281 68.9807 62.6401C68.9807 61.4521 69.9506 60.4801 71.1365 60.4801ZM15.0946 64.8001V90.7201H45.2713V64.8001H15.0946ZM62.6399 73.4401V101.52C62.6442 101.699 62.68 102.39 63.2179 102.976C63.8832 103.697 64.784 103.684 64.9223 103.68H103.684C104.87 103.68 105.84 102.708 105.84 101.52V73.4401H62.6399ZM71.1365 79.9201C72.3223 79.9201 73.2923 80.8921 73.2923 82.0801V92.8801C73.2923 94.0681 72.3223 95.0401 71.1365 95.0401C69.9506 95.0401 68.9807 94.0681 68.9807 92.8801V82.0801C68.9807 80.8921 69.9506 79.9201 71.1365 79.9201Z" fill="#6669AE"/>
</svg>
