<svg width="108" height="108" viewBox="0 0 108 108" fill="none" xmlns="http://www.w3.org/2000/svg">
<path d="M89.787 11.8589C89.1664 11.3769 88.3569 11.2087 87.595 11.4044L76.5308 14.2413L79.3677 3.17713C79.5632 2.41548 79.3947 1.60625 78.9132 0.98507C78.431 0.363892 77.6887 0.000244141 76.9029 0.000244141H31.0968C30.3104 0.000244141 29.5684 0.363892 29.0864 0.98507C28.6042 1.60625 28.4365 2.41548 28.6319 3.17713L31.4688 14.2413L20.4047 11.4046C19.6428 11.2087 18.8338 11.3774 18.2126 11.8591C17.5914 12.3414 17.2278 13.0834 17.2278 13.8695V59.6756C17.2278 60.4622 17.5914 61.2042 18.2126 61.686C18.8338 62.1684 19.6433 62.3359 20.4047 62.1405L31.4688 59.3035L28.6319 70.368C28.4365 71.1299 28.6044 71.9393 29.0864 72.5598C29.5684 73.1809 30.3107 73.5446 31.0968 73.5446H48.9102V108H59.0892V73.5446H76.9026C76.9044 73.5446 76.9062 73.5443 76.9077 73.5446C78.3132 73.5446 79.4525 72.405 79.4525 70.9998C79.4525 70.7222 79.4082 70.4552 79.3265 70.2056L76.5313 59.3035L87.5955 62.1402C88.3574 62.3359 89.1669 62.1677 89.7875 61.686C90.4087 61.2035 90.7724 60.4614 90.7724 59.6756V13.8695C90.7716 13.0832 90.4082 12.3411 89.787 11.8589ZM32.457 53.7957L22.3173 56.3959V17.1489L32.457 19.7489V53.7957ZM34.3765 68.4551L36.9762 58.3154H71.0234L73.6232 68.4551H34.3765ZM41.2759 36.7727C41.2759 29.7567 46.9838 24.0488 53.9997 24.0488C61.0156 24.0488 66.7235 29.7567 66.7235 36.7727C66.7235 43.7886 61.0156 49.4965 53.9997 49.4965C46.9838 49.4965 41.2759 43.7886 41.2759 36.7727ZM71.0232 15.2297H36.9762L34.3765 5.08978H73.6232L71.0232 15.2297ZM85.6821 56.3959L75.5424 53.7957V19.7489L85.6821 17.1489V56.3959Z" fill="#6669AE"/>
</svg>
