<svg width="67" height="67" viewBox="0 0 67 67" fill="none" xmlns="http://www.w3.org/2000/svg">
<g clip-path="url(#clip0_1_5370)">
<path d="M67 0H0V67H67V0Z" fill="white"/>
<path d="M41.9421 61.4167C45.4403 61.4167 48.4422 61.2331 50.9502 60.6756C53.4904 60.1111 55.6922 59.127 57.4096 57.4096C59.127 55.6922 60.1111 53.4904 60.6756 50.9502C61.2331 48.4422 61.4167 45.4403 61.4167 41.9421V33.5001C61.4167 30.4164 58.9171 27.9167 55.8334 27.9167H33.5001C30.4164 27.9167 27.9167 30.4164 27.9167 33.5001V55.8334C27.9167 58.9171 30.4164 61.4167 33.5001 61.4167H41.9421Z" fill="#6669AE"/>
<path d="M5.58325 41.9421C5.58325 45.4403 5.76706 48.4422 6.3245 50.9502C6.88897 53.4904 7.87301 55.6922 9.59049 57.4096C11.308 59.127 13.5097 60.1111 16.0496 60.6756C16.2929 60.7294 16.5373 60.7802 16.7828 60.8277C19.8104 61.4126 22.3333 58.8501 22.3333 55.7664V33.5001C22.3333 30.4164 19.8335 27.9167 16.7499 27.9167H11.1666C8.08299 27.9167 5.58325 30.4164 5.58325 33.5001V41.9421Z" fill="#6669AE"/>
<path d="M25.0578 5.58325C21.5595 5.58325 18.5578 5.76706 16.0495 6.3245C13.5096 6.88897 11.3079 7.87301 9.59039 9.59049C7.8729 11.308 6.88887 13.5097 6.32439 16.0496C6.27805 16.2582 6.23444 16.4674 6.19349 16.6773C5.59501 19.7445 8.20433 22.3333 11.3293 22.3333H55.7662C58.8499 22.3333 61.4124 19.8104 60.8275 16.7828C60.7801 16.5373 60.7293 16.2929 60.6754 16.0496C60.1106 13.5097 59.1268 11.308 57.4091 9.59049C55.6917 7.87301 53.4899 6.88897 50.95 6.3245C48.4417 5.76706 45.4401 5.58325 41.9419 5.58325H25.0578Z" fill="#6669AE"/>
</g>
<defs>
<clipPath id="clip0_1_5370">
<rect width="67" height="67" fill="white"/>
</clipPath>
</defs>
</svg>
