<svg width="88" height="88" viewBox="0 0 88 88" fill="none" xmlns="http://www.w3.org/2000/svg">
<path d="M71.5 19.25H61.9697L57.2861 12.2246C57.035 11.8479 56.6947 11.539 56.2956 11.3254C55.8964 11.1118 55.4507 11 54.998 11H32.998C32.5453 11 32.0995 11.1118 31.7004 11.3254C31.3012 11.539 30.961 11.8479 30.7099 12.2246L26.0263 19.25H16.5C14.3127 19.2525 12.2158 20.1225 10.6691 21.6691C9.1225 23.2158 8.2525 25.3127 8.25 27.5V66C8.2525 68.1873 9.1225 70.2842 10.6691 71.8309C12.2158 73.3775 14.3127 74.2475 16.5 74.25H71.5C73.6873 74.2475 75.7842 73.3775 77.3309 71.8309C78.8775 70.2842 79.7475 68.1873 79.75 66V27.5C79.7475 25.3127 78.8775 23.2158 77.3309 21.6691C75.7842 20.1225 73.6873 19.2525 71.5 19.25ZM56.375 45.375C56.375 47.8225 55.6492 50.2151 54.2894 52.2502C52.9297 54.2852 50.9969 55.8714 48.7357 56.808C46.4745 57.7446 43.9863 57.9897 41.5858 57.5122C39.1852 57.0347 36.9802 55.8561 35.2496 54.1254C33.5189 52.3948 32.3403 50.1898 31.8628 47.7892C31.3853 45.3887 31.6304 42.9005 32.567 40.6393C33.5036 38.3781 35.0898 36.4453 37.1248 35.0856C39.1599 33.7258 41.5525 33 44 33C47.2809 33.0037 50.4264 34.3087 52.7464 36.6286C55.0664 38.9486 56.3713 42.0941 56.375 45.375Z" fill="#6669AE"/>
</svg>
