<svg width="108" height="108" viewBox="0 0 108 108" fill="none" xmlns="http://www.w3.org/2000/svg">
<path d="M12.3926 79.2205C12.3926 81.5671 14.2944 83.469 16.6377 83.469C18.9844 83.4687 20.8828 81.5671 20.8828 79.2205V76.7947H12.3926V79.2205Z" fill="#6669AE"/>
<path d="M87.1172 79.2205C87.1172 81.5671 89.0156 83.469 91.3623 83.469C93.7056 83.469 95.6074 81.5671 95.6074 79.2205V76.7947H87.1172V79.2205Z" fill="#6669AE"/>
<path d="M54 31.532C44.3298 31.532 36.4922 39.3696 36.4922 49.0398C36.4922 58.71 44.3298 66.5476 54 66.5476C63.6702 66.5476 71.5078 58.71 71.5078 49.0398C71.5078 39.3696 63.6702 31.532 54 31.532ZM54 59.9526C47.975 59.9526 43.0905 55.0682 43.0905 49.04C43.0905 43.015 47.975 38.1305 54 38.1305C60.025 38.1305 64.9095 43.015 64.9095 49.04C64.9095 55.0682 60.025 59.9526 54 59.9526Z" fill="#6669AE"/>
<path d="M99.9449 30.8894C99.9449 30.8894 102.542 31.3673 97.674 30.1049C86.8634 27.2967 70.0378 24.5315 54 24.5315C37.9622 24.5315 21.1366 27.2967 10.326 30.1049C5.45463 31.3671 8.05507 30.8894 8.05507 30.8894C3.23325 32.5537 0 37.0922 0 42.191V63.9836C0 69.2669 4.28477 73.5483 9.56475 73.5483H54H98.4321C103.715 73.5483 108 69.2669 108 63.9836V42.191C108 37.0922 104.767 32.5537 99.9449 30.8894ZM24.8444 58.9373H12.4189C11.4235 58.9373 10.6161 58.1298 10.6161 57.1344C10.6161 56.1358 11.4235 55.3282 12.4189 55.3282H24.8444C25.8398 55.3282 26.6473 56.1356 26.6473 57.1344C26.6473 58.1298 25.8398 58.9373 24.8444 58.9373ZM24.8444 47.5138H12.4189C11.4235 47.5138 10.6161 46.7063 10.6161 45.7109C10.6161 44.7155 11.4235 43.908 12.4189 43.908H24.8444C25.8398 43.908 26.6473 44.7155 26.6473 45.7109C26.6473 46.7063 25.8398 47.5138 24.8444 47.5138ZM54 69.9225C42.4841 69.9225 33.1172 60.5556 33.1172 49.0397C33.1172 37.5271 42.4841 28.1569 54 28.1569C65.5159 28.1569 74.8828 37.5271 74.8828 49.0397C74.8828 60.5556 65.5159 69.9225 54 69.9225ZM91.1942 46.8611C89.0979 46.8611 87.3973 45.1603 87.3973 43.0643C87.3973 40.9682 89.0981 39.2674 91.1942 39.2674C93.2936 39.2674 94.9911 40.9682 94.9911 43.0643C94.9911 45.1603 93.2936 46.8611 91.1942 46.8611Z" fill="#6669AE"/>
</svg>
