<svg width="108" height="108" viewBox="0 0 108 108" fill="none" xmlns="http://www.w3.org/2000/svg">
<g clip-path="url(#clip0_1_5341)">
<path d="M103.5 49.5H94.5V45H103.5V49.5ZM9 49.5H18V45H9V49.5ZM88.407 27.27L94.7745 20.907L91.593 17.7255L85.2255 24.093L88.407 27.27ZM17.73 20.9115L24.0975 27.279L27.279 24.0975L20.9115 17.73L17.73 20.9115ZM58.5 18V9H54V18H58.5ZM58.5 85.5V94.5H99V99H13.5V94.5H54V85.5H17.298C16.2911 85.4988 15.3257 85.0983 14.6137 84.3863C13.9017 83.6743 13.5012 82.7089 13.5 81.702C13.5119 71.9717 17.3825 62.6433 24.2629 55.7629C31.1433 48.8825 40.4717 45.0119 50.202 45H54V40.5H45V36H67.5V40.5H58.5V45H62.298C72.0283 45.0119 81.3567 48.8825 88.2371 55.7629C95.1175 62.6433 98.9881 71.9717 99 81.702C98.9988 82.7089 98.5983 83.6743 97.8863 84.3863C97.1743 85.0983 96.2089 85.4988 95.202 85.5H58.5ZM94.491 81C94.2983 72.5863 90.8232 64.5815 84.8078 58.6956C78.7925 52.8097 70.7139 49.5095 62.298 49.5H50.202C41.7861 49.5095 33.7076 52.8097 27.6922 58.6956C21.6769 64.5815 18.2017 72.5863 18.009 81H94.491Z" fill="#6669AE"/>
</g>
<defs>
<clipPath id="clip0_1_5341">
<rect width="108" height="108" fill="white"/>
</clipPath>
</defs>
</svg>
