<svg width="108" height="108" viewBox="0 0 108 108" fill="none" xmlns="http://www.w3.org/2000/svg">
<path d="M49.5 45H22.5V40.5C22.5 36.9196 23.9223 33.4858 26.4541 30.9541C28.9858 28.4223 32.4196 27 36 27C39.5804 27 43.0142 28.4223 45.5459 30.9541C48.0777 33.4858 49.5 36.9196 49.5 40.5V45Z" fill="#6669AE"/>
<path d="M76.5 94.5V22.5C76.5 20.1131 75.5518 17.8239 73.864 16.136C72.1761 14.4482 69.8869 13.5 67.5 13.5H45C42.6131 13.5 40.3239 14.4482 38.636 16.136C36.9482 17.8239 36 20.1131 36 22.5V27" stroke="#6669AE" stroke-width="9" stroke-linecap="round" stroke-linejoin="round"/>
<path d="M67.5 94.5H85.5M27 63V72M45 63V72M49.5 45H22.5V40.5C22.5 36.9196 23.9223 33.4858 26.4541 30.9541C28.9858 28.4223 32.4196 27 36 27C39.5804 27 43.0142 28.4223 45.5459 30.9541C48.0777 33.4858 49.5 36.9196 49.5 40.5V45Z" stroke="#6669AE" stroke-width="9" stroke-linecap="round" stroke-linejoin="round"/>
</svg>
