<svg width="108" height="108" viewBox="0 0 108 108" fill="none" xmlns="http://www.w3.org/2000/svg">
<path d="M5.99894 36.3345C4.14706 37.992 3.98946 40.8368 5.64695 42.6887C7.30439 44.5406 10.1493 44.6982 12.0011 43.0407L5.99894 36.3345ZM95.999 43.0407C97.8507 44.6982 100.696 44.5406 102.353 42.6887C104.011 40.8368 103.853 37.992 102.001 36.3345L95.999 43.0407ZM54 85.5C51.5147 85.5 49.5 87.5146 49.5 90C49.5 92.4853 51.5147 94.5 54 94.5V85.5ZM54.045 94.5C56.5304 94.5 58.545 92.4853 58.545 90C58.545 87.5146 56.5304 85.5 54.045 85.5V94.5ZM66.1073 76.68C67.9455 78.3522 70.7918 78.2176 72.464 76.3794C74.1366 74.5407 74.0016 71.6949 72.1634 70.0222L66.1073 76.68ZM81.2426 60.0313C83.0808 61.7035 85.9271 61.569 87.5993 59.7303C89.2715 57.892 89.1369 55.0458 87.2987 53.3736L81.2426 60.0313ZM35.8368 70.0222C33.9983 71.6949 33.8636 74.5407 35.5359 76.3794C37.2083 78.2176 40.0543 78.3522 41.8928 76.68L35.8368 70.0222ZM20.7016 53.3736C18.8631 55.0458 18.7284 57.892 20.4007 59.7303C22.073 61.569 24.9191 61.7035 26.7575 60.0313L20.7016 53.3736ZM12.0011 43.0407C23.15 33.0622 37.8617 27 54 27V18C35.5624 18 18.7341 24.9362 5.99894 36.3345L12.0011 43.0407ZM54 27C70.1384 27 84.8502 33.0622 95.999 43.0407L102.001 36.3345C89.2661 24.9362 72.4374 18 54 18V27ZM54 94.5H54.045V85.5H54V94.5ZM54 72C58.6652 72 62.9069 73.7689 66.1073 76.68L72.1634 70.0222C67.3709 65.6631 60.9912 63 54 63V72ZM54 49.5C64.4936 49.5 74.0457 53.4847 81.2426 60.0313L87.2987 53.3736C78.5097 45.3789 66.8192 40.5 54 40.5V49.5ZM41.8928 76.68C45.0932 73.7689 49.3349 72 54 72V63C47.0088 63 40.6293 65.6631 35.8368 70.0222L41.8928 76.68ZM26.7575 60.0313C33.9545 53.4847 43.5067 49.5 54 49.5V40.5C41.1807 40.5 29.4905 45.3789 20.7016 53.3736L26.7575 60.0313Z" fill="#6669AE"/>
</svg>
