<svg width="67" height="67" viewBox="0 0 67 67" fill="none" xmlns="http://www.w3.org/2000/svg">
<path d="M36.2497 0.767671C42.6362 1.24199 48.7483 3.55771 53.8458 7.43442C58.9433 11.3111 62.8075 16.5825 64.9705 22.6103C67.1336 28.6381 67.5026 35.1638 66.0331 41.397C64.5635 47.6303 61.3183 53.3038 56.6905 57.7306C52.0627 62.1573 46.2507 65.1475 39.9584 66.3389C33.666 67.5303 27.1632 66.872 21.2374 64.4435C15.3115 62.015 10.2168 57.9206 6.57021 52.6561C2.92359 47.3915 0.881459 41.1827 0.691099 34.7814L13.3843 34.4039C13.5016 38.3509 14.7608 42.1792 17.0092 45.4252C19.2577 48.6712 22.399 51.1958 26.0528 52.6931C29.7066 54.1905 33.7161 54.5964 37.5959 53.8618C41.4756 53.1272 45.0592 51.2835 47.9127 48.5541C50.7661 45.8246 52.7671 42.3264 53.6732 38.483C54.5793 34.6397 54.3517 30.6161 53.018 26.8994C51.6843 23.1828 49.3017 19.9325 46.1587 17.5422C43.0156 15.1519 39.247 13.724 35.3092 13.4316L36.2497 0.767671Z" fill="#D1D2E7" fill-opacity="0.5"/>
</svg>
