<svg width="32" height="60" viewBox="0 0 32 60" fill="none" xmlns="http://www.w3.org/2000/svg">
<path d="M15.3874 36.559C13.8223 36.559 12.3032 36.2366 10.7841 35.5918C3.64892 32.5062 1.39329 23.4798 5.39819 14.1769C9.12689 5.5649 15.2493 3.35436 19.7146 2.98593C21.4178 2.84777 23.029 3.12408 24.5481 3.76883C26.0211 4.41358 27.3561 5.42674 28.4149 6.76229C31.2229 10.2624 33.8008 16.2954 30.0721 24.8614C26.8958 32.23 21.1876 36.605 15.3874 36.605V36.559ZM6.36485 14.5914C2.59012 23.3876 4.6156 31.8155 11.1984 34.6708C17.7811 37.5261 25.3306 33.2431 29.1053 24.4469C31.8673 17.9994 31.361 12.1045 27.5862 7.36101C26.6195 6.16362 25.4687 5.24253 24.1337 4.68989C22.7988 4.09119 21.3257 3.86088 19.8066 3.99904C13.7762 4.50563 9.12685 8.14389 6.36485 14.5914Z" fill="#6669AE"/>
<path d="M11.8889 40.1509C11.1524 40.1509 10.1397 40.0128 8.98882 39.5062C6.50302 38.447 5.72045 36.789 5.67442 36.7429C5.62838 36.6048 5.62838 36.4666 5.67442 36.3285L7.19353 32.8284C7.28559 32.5521 7.6078 32.46 7.884 32.5521C8.1602 32.6442 8.25225 32.9666 8.16019 33.2429L6.77924 36.4666C7.05544 36.8811 7.83795 37.8482 9.44912 38.539C11.0603 39.2298 12.2572 39.1377 12.7175 39.0456L14.0525 35.914C14.1445 35.6377 14.4668 35.5456 14.743 35.6377C15.0192 35.7298 15.1112 36.0522 15.0192 36.3285L13.5461 39.6904C13.5461 39.6904 13.362 39.9207 13.2239 39.9668C13.2239 39.9668 12.7175 40.1509 11.8889 40.1509Z" fill="#6669AE"/>
<path d="M0.564644 59.3095C0.564644 59.3095 0.42653 59.3095 0.334463 59.2634C-0.171904 59.0332 -0.724279 58.8029 3.74096 45.9539L7.05536 38.263C7.14743 37.9867 7.46963 37.8946 7.74583 37.9867C8.02203 38.0788 8.11409 38.4012 8.02202 38.6775L4.70762 46.3224C3.32662 50.3751 1.89963 54.7963 1.30119 57.099C2.59013 55.1187 4.89178 51.0659 6.96328 47.2434L10.1856 39.7828C10.2777 39.5065 10.5999 39.4144 10.8761 39.5065C11.1523 39.5986 11.2444 39.9209 11.1523 40.1972L7.88393 47.704C2.26786 58.1121 1.11704 59.3095 0.564644 59.3095Z" fill="#6669AE"/>
<path d="M29.1974 9.15739C29.1974 9.15739 29.0593 9.15739 29.0133 9.15739C28.7371 9.06529 28.645 8.74287 28.7371 8.46655L29.5657 6.5784C29.5657 6.5784 29.5657 6.1178 29.4736 5.79543C29.0133 4.59803 27.2641 2.84806 24.9624 1.83488C22.0623 0.591435 18.8859 0.913765 18.5177 1.78878L17.6431 3.86118C17.551 4.13751 17.2288 4.22967 16.9526 4.13756C16.6764 4.04546 16.5843 3.72304 16.6764 3.44672L17.551 1.37432C18.3336 -0.421773 22.4306 -0.329694 25.3307 0.913754C27.6323 1.88088 29.7498 3.81518 30.3943 5.42706C30.6245 6.02576 30.6705 6.53233 30.4864 6.99287L29.6577 8.88108C29.6577 8.88108 29.3816 9.20342 29.1974 9.20342V9.15739Z" fill="#6669AE"/>
<path d="M25.2848 22.2363C25.2848 22.2363 25.2388 22.2363 25.1928 22.2363C25.0547 22.1902 24.9626 22.006 25.0546 21.8678C25.2388 21.4073 25.4229 20.9467 25.561 20.4862C25.607 20.348 25.7912 20.256 25.9293 20.302C26.0674 20.3481 26.1595 20.5323 26.1134 20.6705C25.9293 21.131 25.7452 21.5915 25.6071 22.0521C25.6071 22.1442 25.469 22.2363 25.3309 22.2363H25.2848Z" fill="#6669AE"/>
<path d="M14.3748 35.9603C14.3748 35.9603 14.1447 35.8682 14.0986 35.7761C14.0526 35.6379 14.0986 35.4537 14.2827 35.4076C14.3288 35.4076 19.8067 33.2892 24.1339 24.0324C24.1799 23.8942 24.3641 23.8482 24.5022 23.8942C24.6403 23.9403 24.6863 24.1245 24.6402 24.2627C20.221 33.7497 14.6971 35.8681 14.4669 35.9603C14.4669 35.9603 14.4209 35.9603 14.3748 35.9603Z" fill="#6669AE"/>
<path d="M10.6001 15.8809C10.6001 15.8809 10.508 15.8809 10.462 15.8809C10.3239 15.8348 10.2779 15.6506 10.3239 15.5124C10.508 15.0519 10.7382 14.6374 10.9684 14.1769C11.0604 14.0387 11.1985 13.9927 11.3366 14.0388C11.4747 14.1309 11.5208 14.269 11.4747 14.4072C11.2446 14.8677 11.0144 15.2822 10.8303 15.7427C10.7842 15.8348 10.6922 15.8809 10.6001 15.8809Z" fill="#6669AE"/>
<path d="M8.11419 33.2435C8.11419 33.2435 7.88404 33.1974 7.83801 33.0593C7.74594 32.829 5.49029 27.3947 9.40312 17.6313C9.44916 17.4931 9.6333 17.401 9.7714 17.4931C9.9095 17.5392 10.0016 17.7234 9.90949 17.8616C6.13476 27.3947 8.34437 32.7829 8.34437 32.829C8.39041 32.9672 8.34438 33.1514 8.20628 33.1974H8.11419V33.2435Z" fill="#6669AE"/>
<path d="M11.6588 37.4799C11.6588 37.4799 11.6128 37.4799 11.5667 37.4799C10.508 37.1575 9.49525 36.6509 8.57458 35.9601C8.43648 35.868 8.43643 35.6838 8.5285 35.5917C8.62057 35.4535 8.80471 35.4535 8.89678 35.5456C9.77141 36.1904 10.6921 36.697 11.7048 36.9733C11.8429 36.9733 11.935 37.1575 11.889 37.2957C11.889 37.4339 11.7508 37.4799 11.6127 37.4799H11.6588Z" fill="#6669AE"/>
<path d="M13.5922 37.803C13.5922 37.803 13.0398 37.8029 12.5334 37.7108C12.3953 37.7108 12.3032 37.5266 12.3032 37.3884C12.3032 37.2503 12.4873 37.1582 12.6254 37.1582C13.2699 37.2503 13.6382 37.2503 13.6382 37.2503C13.8223 37.2503 13.9143 37.3424 13.9143 37.5266C13.9143 37.6648 13.8223 37.803 13.6382 37.803C13.6382 37.803 13.6382 37.803 13.5922 37.803Z" fill="#6669AE"/>
<path d="M4.70758 49.2243H4.61556C4.47746 49.1782 4.43144 48.994 4.47747 48.8559L4.75366 48.1651C4.75366 48.1651 4.98383 47.9809 5.12193 48.0269C5.26003 48.073 5.30606 48.2571 5.26003 48.3953L4.98384 49.0861C4.98384 49.0861 4.84568 49.2703 4.70758 49.2703V49.2243Z" fill="#6669AE"/>
<path d="M1.16324 57.6981H1.07115C0.933051 57.6521 0.84099 57.4678 0.933057 57.3297L3.83318 50.4216C3.83318 50.4216 4.06329 50.1914 4.20139 50.2835C4.33949 50.3295 4.43155 50.5137 4.33948 50.6519L1.43943 57.56C1.43943 57.56 1.30134 57.7442 1.16324 57.7442V57.6981Z" fill="#6669AE"/>
<path d="M22.0621 2.43308C22.0621 2.43308 22.0621 2.43308 22.0161 2.43308C21.832 2.43308 21.6939 2.387 21.5097 2.34095C21.3716 2.34095 21.2335 2.20283 21.2795 2.01861C21.2795 1.88045 21.4176 1.74228 21.6017 1.78833C21.7859 1.78833 21.97 1.8344 22.1542 1.88046C22.2923 1.88046 22.3844 2.06463 22.3844 2.2028C22.3844 2.34096 22.2462 2.43308 22.1081 2.43308H22.0621Z" fill="#6669AE"/>
<path d="M17.9653 2.66375C17.9653 2.66375 17.7352 2.61773 17.6891 2.47957C17.6431 2.34141 17.6891 2.15719 17.8272 2.11113C17.8733 2.11113 18.9781 1.65054 20.5893 1.6966C20.7274 1.6966 20.8655 1.83482 20.8655 1.97298C20.8655 2.11114 20.7274 2.24929 20.5893 2.24929C19.1162 2.24929 18.0574 2.61773 18.0113 2.61773C18.0113 2.61773 17.9654 2.61773 17.9193 2.61773L17.9653 2.66375Z" fill="#6669AE"/>
</svg>
