<svg width="117" height="111" viewBox="0 0 117 111" fill="none" xmlns="http://www.w3.org/2000/svg">
<path d="M53.2532 36.7796C58.1933 43.1158 67.3345 44.2477 73.6707 39.3077M53.2532 36.7796C48.3132 30.4433 49.4451 21.3021 55.7813 16.3621M53.2532 36.7796L41.7805 45.7243M73.6707 39.3077C80.0069 34.3677 81.1388 25.2265 76.1988 18.8902M73.6707 39.3077L82.6154 50.7805M76.1988 18.8902C71.2588 12.554 62.1176 11.4221 55.7813 16.3621M76.1988 18.8902L87.6716 9.94556M55.7813 16.3621L46.8367 4.88936M68.0968 0.611637L66.4114 14.2233M63.0406 41.4465L61.3552 55.0582M91.9493 31.2057L78.3377 29.5203M51.1144 26.1495L37.5028 24.4641M77.5592 91.6154C82.4992 97.9516 91.6404 99.0835 97.9766 94.1435M77.5592 91.6154C72.6192 85.2791 73.751 76.1379 80.0873 71.1979M77.5592 91.6154L66.0864 100.56M97.9766 94.1435C104.313 89.2035 105.445 80.0623 100.505 73.726M97.9766 94.1435L106.921 105.616M100.505 73.726C95.5647 67.3898 86.4235 66.2579 80.0873 71.1979M100.505 73.726L111.978 64.7813M80.0873 71.1979L71.1426 59.7251M92.4028 55.4474L90.7174 69.0591M87.3466 96.2823L85.6612 109.894M116.255 86.0415L102.644 84.3561M75.4203 80.9853L61.8087 79.2999M16.3068 84.0311C21.2468 90.3673 30.388 91.4992 36.7243 86.5592M16.3068 84.0311C11.3668 77.6948 12.4987 68.5536 18.8349 63.6136M16.3068 84.0311L4.83404 92.9758M36.7243 86.5592C43.0605 81.6192 44.1924 72.478 39.2524 66.1417M36.7243 86.5592L45.6689 98.032M39.2524 66.1417C34.3124 59.8055 25.1712 58.6736 18.8349 63.6136M39.2524 66.1417L50.7251 57.197M18.8349 63.6136L9.89024 52.1408M31.1504 47.8631L29.465 61.4748M26.0942 88.698L24.4088 102.31M55.0029 78.4572L41.3912 76.7718M14.168 73.401L0.556318 71.7156" stroke="white" stroke-width="2"/>
</svg>
