<svg width="96" height="96" viewBox="0 0 96 96" fill="none" xmlns="http://www.w3.org/2000/svg">
<path d="M48.109 95.7623C38.6872 95.7591 29.478 92.9621 21.6459 87.725C13.8138 82.4879 7.71051 75.046 4.1079 66.3402C0.505303 57.6344 -0.434832 48.0558 1.40639 38.8157C3.24761 29.5756 7.78749 21.089 14.4519 14.4291C21.1164 7.76919 29.606 3.23505 38.8474 1.40009C48.0887 -0.434876 57.6666 0.511741 66.37 4.12023C75.0733 7.72873 82.5112 13.837 87.743 21.6727C92.9748 29.5084 95.7655 38.7195 95.7623 48.1412L55.1151 48.1275C55.1155 46.745 54.706 45.3934 53.9384 44.2437C53.1707 43.0939 52.0793 42.1976 50.8022 41.6681C49.5252 41.1387 48.1198 40.9998 46.7638 41.269C45.4078 41.5383 44.162 42.2036 43.1841 43.1808C42.2063 44.158 41.5401 45.4033 41.2699 46.7591C40.9998 48.1149 41.1377 49.5204 41.6663 50.7979C42.195 52.0753 43.0905 53.1673 44.2397 53.9357C45.389 54.7042 46.7403 55.1146 48.1227 55.1151L48.109 95.7623Z" fill="#A97474"/>
</svg>
