<svg width="108" height="108" viewBox="0 0 108 108" fill="none" xmlns="http://www.w3.org/2000/svg">
<path d="M21.5999 4.31995C20.4119 4.31995 19.4399 5.29195 19.4399 6.47995V14.0189L5.22694 24.1692C4.66534 24.558 4.31991 25.2287 4.31991 25.9199V34.5599C4.31991 35.7479 5.29191 36.7199 6.47991 36.7199H53.9999C55.1879 36.7199 56.1599 35.7479 56.1599 34.5599V25.9199C56.1599 25.2287 55.8145 24.558 55.2529 24.1692L41.0399 14.0189V6.47995C41.0399 5.29195 40.0679 4.31995 38.8799 4.31995H21.5999ZM15.0946 47.5199C13.9088 47.5199 12.9388 48.4919 12.9388 49.6799V51.8399H4.31569C3.12985 51.8399 2.15991 52.8119 2.15991 53.9999V101.52C2.15991 102.708 3.12985 103.68 4.31569 103.68H55.7465C57.1051 103.68 58.2018 102.577 58.2018 101.216V54.1771C58.2018 52.8855 57.1583 51.8399 55.8688 51.8399H47.4229V49.971C47.4229 48.6167 46.3282 47.5199 44.976 47.5199H15.0946ZM64.9855 51.8399C64.8408 51.8356 63.9173 51.829 63.2348 52.5656C62.7056 53.1358 62.6507 53.8055 62.6399 53.9999V69.1199H105.84V53.9999C105.84 52.8119 104.87 51.8399 103.684 51.8399H99.1574H79.7596H64.9855ZM12.9388 60.4799H47.4271C48.6129 60.4799 49.5829 61.452 49.5829 62.6399V92.88C49.5829 94.0679 48.6129 95.0399 47.4271 95.0399H12.9388C11.753 95.0399 10.783 94.0679 10.783 92.88V62.6399C10.783 61.452 11.753 60.4799 12.9388 60.4799ZM71.1365 60.4799H97.0016C98.1875 60.4799 99.1574 61.452 99.1574 62.6399C99.1574 63.8279 98.1875 64.7999 97.0016 64.7999H71.1365C69.9506 64.7999 68.9807 63.8279 68.9807 62.6399C68.9807 61.452 69.9506 60.4799 71.1365 60.4799ZM15.0946 64.7999V90.7199H45.2713V64.7999H15.0946ZM62.6399 73.4399V101.52C62.6442 101.699 62.68 102.39 63.2179 102.975C63.8832 103.697 64.784 103.684 64.9223 103.68H103.684C104.87 103.68 105.84 102.708 105.84 101.52V73.4399H62.6399ZM71.1365 79.92C72.3223 79.92 73.2923 80.892 73.2923 82.0799V92.88C73.2923 94.0679 72.3223 95.0399 71.1365 95.0399C69.9506 95.0399 68.9807 94.0679 68.9807 92.88V82.0799C68.9807 80.892 69.9506 79.92 71.1365 79.92Z" fill="#A97474"/>
</svg>
