<svg width="26" height="25" viewBox="0 0 26 25" fill="none" xmlns="http://www.w3.org/2000/svg">
<path d="M12.2954 4.77228C14.7446 4.77228 15.0347 4.78301 15.9979 4.82598C16.893 4.86537 17.3764 5.01576 17.6987 5.14109C18.1248 5.3058 18.4328 5.50631 18.7514 5.825C19.0737 6.14725 19.2706 6.45161 19.4353 6.87772C19.5606 7.19997 19.711 7.68694 19.7504 8.57854C19.7934 9.54532 19.8042 9.83535 19.8042 12.2809C19.8042 14.7302 19.7934 15.0202 19.7504 15.9834C19.711 16.8786 19.5606 17.362 19.4353 17.6842C19.2706 18.1103 19.0701 18.4183 18.7514 18.7369C18.4291 19.0592 18.1248 19.2561 17.6987 19.4209C17.3764 19.5461 16.8894 19.6965 15.9979 19.7359C15.031 19.7789 14.741 19.7896 12.2954 19.7896C9.84626 19.7896 9.55622 19.7789 8.59302 19.7359C7.69785 19.6965 7.21446 19.5461 6.8922 19.4209C6.4661 19.2561 6.15816 19.0555 5.83948 18.7369C5.51722 18.4146 5.32028 18.1103 5.15557 17.6842C5.03025 17.362 4.87985 16.8749 4.84047 15.9834C4.7975 15.0166 4.78676 14.7265 4.78676 12.2809C4.78676 9.83177 4.7975 9.54174 4.84047 8.57854C4.87985 7.68337 5.03025 7.19997 5.15557 6.87772C5.32028 6.45161 5.5208 6.14368 5.83948 5.825C6.16174 5.50274 6.4661 5.3058 6.8922 5.14109C7.21446 5.01576 7.70143 4.86537 8.59302 4.82598C9.55622 4.78301 9.84626 4.77228 12.2954 4.77228ZM12.2954 3.12158C9.80687 3.12158 9.49535 3.13233 8.51783 3.17529C7.54388 3.21826 6.8743 3.37581 6.29422 3.6014C5.68909 3.83771 5.17706 4.14924 4.6686 4.66127C4.15657 5.16973 3.84505 5.68176 3.60872 6.28332C3.38314 6.86697 3.22558 7.53297 3.18261 8.50692C3.13965 9.48803 3.12891 9.79955 3.12891 12.2881C3.12891 14.7766 3.13965 15.0882 3.18261 16.0657C3.22558 17.0397 3.38314 17.7093 3.60872 18.2894C3.84505 18.8945 4.15657 19.4065 4.6686 19.915C5.17706 20.4234 5.68909 20.7385 6.29065 20.9713C6.8743 21.1969 7.5403 21.3544 8.51424 21.3974C9.49177 21.4403 9.80329 21.451 12.2919 21.451C14.7804 21.451 15.092 21.4403 16.0695 21.3974C17.0435 21.3544 17.7131 21.1969 18.293 20.9713C18.8946 20.7385 19.4066 20.4234 19.9151 19.915C20.4236 19.4065 20.7386 18.8945 20.9714 18.2929C21.197 17.7093 21.3546 17.0432 21.3975 16.0694C21.4405 15.0918 21.4513 14.7803 21.4513 12.2917C21.4513 9.80312 21.4405 9.4916 21.3975 8.51409C21.3546 7.54014 21.197 6.87055 20.9714 6.29048C20.7458 5.68176 20.4344 5.16973 19.9223 4.66127C19.4138 4.15282 18.9018 3.83772 18.3002 3.60497C17.7166 3.3794 17.0505 3.22184 16.0767 3.17887C15.0955 3.13233 14.784 3.12158 12.2954 3.12158Z" fill="#EFECE6"/>
<path d="M12.2984 7.57983C9.69887 7.57983 7.58984 9.68886 7.58984 12.2884C7.58984 14.888 9.69887 16.9971 12.2984 16.9971C14.898 16.9971 17.0071 14.888 17.0071 12.2884C17.0071 9.68886 14.898 7.57983 12.2984 7.57983ZM12.2984 15.3428C10.612 15.3428 9.24411 13.9749 9.24411 12.2884C9.24411 10.6019 10.612 9.2341 12.2984 9.2341C13.9849 9.2341 15.3528 10.6019 15.3528 12.2884C15.3528 13.9749 13.9849 15.3428 12.2984 15.3428Z" fill="#EFECE6"/>
<path d="M18.2923 7.39347C18.2923 8.00218 17.7981 8.49273 17.193 8.49273C16.5842 8.49273 16.0938 7.9986 16.0938 7.39347C16.0938 6.78475 16.5879 6.29419 17.193 6.29419C17.7981 6.29419 18.2923 6.78833 18.2923 7.39347Z" fill="#EFECE6"/>
</svg>
