<svg width="26" height="25" viewBox="0 0 26 25" fill="none" xmlns="http://www.w3.org/2000/svg">
<path d="M12.7867 4.77277C15.2358 4.77277 15.5259 4.7835 16.4891 4.82647C17.3842 4.86586 17.8676 5.01625 18.1899 5.14157C18.616 5.30628 18.924 5.5068 19.2426 5.82549C19.5649 6.14774 19.7619 6.4521 19.9265 6.87821C20.0518 7.20046 20.2022 7.68743 20.2416 8.57902C20.2846 9.54581 20.2954 9.83584 20.2954 12.2814C20.2954 14.7307 20.2846 15.0207 20.2416 15.9839C20.2022 16.8791 20.0518 17.3625 19.9265 17.6846C19.7619 18.1108 19.5613 18.4187 19.2426 18.7374C18.9203 19.0597 18.616 19.2566 18.1899 19.4214C17.8676 19.5466 17.3807 19.697 16.4891 19.7364C15.5222 19.7794 15.2322 19.7901 12.7867 19.7901C10.3375 19.7901 10.0474 19.7794 9.08423 19.7364C8.18906 19.697 7.70567 19.5466 7.38341 19.4214C6.95731 19.2566 6.64937 19.056 6.33069 18.7374C6.00843 18.4151 5.81149 18.1108 5.64678 17.6846C5.52146 17.3625 5.37107 16.8754 5.33168 15.9839C5.28872 15.0171 5.27797 14.727 5.27797 12.2814C5.27797 9.83226 5.28872 9.54222 5.33168 8.57902C5.37107 7.68386 5.52146 7.20046 5.64678 6.87821C5.81149 6.4521 6.01201 6.14416 6.33069 5.82549C6.65295 5.50322 6.95731 5.30628 7.38341 5.14157C7.70567 5.01625 8.19264 4.86586 9.08423 4.82647C10.0474 4.7835 10.3375 4.77277 12.7867 4.77277ZM12.7867 3.12207C10.2981 3.12207 9.98656 3.13281 9.00904 3.17578C8.03509 3.21875 7.36551 3.3763 6.78543 3.60188C6.1803 3.8382 5.66827 4.14973 5.15981 4.66176C4.64778 5.17022 4.33626 5.68225 4.09993 6.28381C3.87435 6.86746 3.71679 7.53346 3.67382 8.50741C3.63086 9.48852 3.62012 9.80004 3.62012 12.2886C3.62012 14.7771 3.63086 15.0887 3.67382 16.0662C3.71679 17.0402 3.87435 17.7098 4.09993 18.2898C4.33626 18.8949 4.64778 19.407 5.15981 19.9155C5.66827 20.4239 6.1803 20.739 6.78186 20.9718C7.36551 21.1974 8.03151 21.3549 9.00545 21.3978C9.98298 21.4408 10.2945 21.4515 12.7831 21.4515C15.2716 21.4515 15.5832 21.4408 16.5607 21.3978C17.5347 21.3549 18.2043 21.1974 18.7842 20.9718C19.3858 20.739 19.8978 20.4239 20.4063 19.9155C20.9148 19.407 21.2298 18.8949 21.4626 18.2934C21.6882 17.7098 21.8458 17.0437 21.8887 16.0698C21.9317 15.0922 21.9425 14.7808 21.9425 12.2922C21.9425 9.80361 21.9317 9.49209 21.8887 8.51457C21.8458 7.54063 21.6882 6.87104 21.4626 6.29097C21.237 5.68225 20.9256 5.17022 20.4135 4.66176C19.905 4.1533 19.393 3.83821 18.7914 3.60546C18.2078 3.37988 17.5418 3.22233 16.5679 3.17936C15.5867 3.13281 15.2752 3.12207 12.7867 3.12207Z" fill="#0B1215"/>
<path d="M12.7877 7.58008C10.1881 7.58008 8.0791 9.6891 8.0791 12.2887C8.0791 14.8883 10.1881 16.9973 12.7877 16.9973C15.3873 16.9973 17.4963 14.8883 17.4963 12.2887C17.4963 9.6891 15.3873 7.58008 12.7877 7.58008ZM12.7877 15.343C11.1012 15.343 9.73337 13.9752 9.73337 12.2887C9.73337 10.6022 11.1012 9.23435 12.7877 9.23435C14.4742 9.23435 15.842 10.6022 15.842 12.2887C15.842 13.9752 14.4742 15.343 12.7877 15.343Z" fill="#0B1215"/>
<path d="M18.7806 7.39371C18.7806 8.00242 18.2863 8.49298 17.6812 8.49298C17.0725 8.49298 16.582 7.99885 16.582 7.39371C16.582 6.78499 17.0762 6.29443 17.6812 6.29443C18.2863 6.29443 18.7806 6.78857 18.7806 7.39371Z" fill="#0B1215"/>
</svg>
