<svg width="19" height="18" viewBox="0 0 19 18" fill="none" xmlns="http://www.w3.org/2000/svg">
<mask id="path-1-inside-1_64_939" fill="white">
<path d="M10.5904 1.59772H8.35836C7.93185 1.59772 7.57642 1.27559 7.57642 0.889051V0.708665C7.57642 0.322123 7.93185 0 8.35836 0H10.5904C11.0169 0 11.3724 0.322123 11.3724 0.708665V0.889051C11.3724 1.27559 11.0169 1.59772 10.5904 1.59772ZM8.35836 0.296363C8.10245 0.296363 7.90342 0.489624 7.90342 0.708665V0.889051C7.90342 1.12098 8.11667 1.30137 8.35836 1.30137H10.5904C10.8463 1.30137 11.0454 1.10809 11.0454 0.889051V0.708665C11.0454 0.47674 10.8321 0.296363 10.5904 0.296363H8.35836Z"/>
</mask>
<path d="M10.5904 1.59772H8.35836C7.93185 1.59772 7.57642 1.27559 7.57642 0.889051V0.708665C7.57642 0.322123 7.93185 0 8.35836 0H10.5904C11.0169 0 11.3724 0.322123 11.3724 0.708665V0.889051C11.3724 1.27559 11.0169 1.59772 10.5904 1.59772ZM8.35836 0.296363C8.10245 0.296363 7.90342 0.489624 7.90342 0.708665V0.889051C7.90342 1.12098 8.11667 1.30137 8.35836 1.30137H10.5904C10.8463 1.30137 11.0454 1.10809 11.0454 0.889051V0.708665C11.0454 0.47674 10.8321 0.296363 10.5904 0.296363H8.35836Z" fill="#EFECE6"/>
<path d="M10.5904 0.597716H8.35836V2.59772H10.5904V0.597716ZM8.35836 0.597716C8.39667 0.597716 8.4397 0.611763 8.47898 0.647364C8.5188 0.683456 8.57642 0.765348 8.57642 0.889051H6.57642C6.57642 1.91819 7.47442 2.59772 8.35836 2.59772V0.597716ZM8.57642 0.889051V0.708665H6.57642V0.889051H8.57642ZM8.57642 0.708665C8.57642 0.832367 8.5188 0.914259 8.47898 0.950351C8.4397 0.985952 8.39667 1 8.35836 1V-1C7.47442 -1 6.57642 -0.32047 6.57642 0.708665H8.57642ZM8.35836 1H10.5904V-1H8.35836V1ZM10.5904 1C10.5521 1 10.5091 0.985952 10.4698 0.950351C10.43 0.914259 10.3724 0.832367 10.3724 0.708665H12.3724C12.3724 -0.32047 11.4744 -1 10.5904 -1V1ZM10.3724 0.708665V0.889051H12.3724V0.708665H10.3724ZM10.3724 0.889051C10.3724 0.765348 10.43 0.683456 10.4698 0.647364C10.5091 0.611763 10.5521 0.597716 10.5904 0.597716V2.59772C11.4744 2.59772 12.3724 1.91819 12.3724 0.889051H10.3724ZM8.35836 -0.703637C7.62396 -0.703637 6.90342 -0.133672 6.90342 0.708665H8.90342C8.90342 1.11292 8.58094 1.29636 8.35836 1.29636V-0.703637ZM6.90342 0.708665V0.889051H8.90342V0.708665H6.90342ZM6.90342 0.889051C6.90342 1.78254 7.6804 2.30137 8.35836 2.30137V0.301372C8.4831 0.301372 8.6052 0.346578 8.70386 0.434097C8.80635 0.525016 8.90342 0.683691 8.90342 0.889051H6.90342ZM8.35836 2.30137H10.5904V0.301372H8.35836V2.30137ZM10.5904 2.30137C11.3249 2.30137 12.0454 1.73133 12.0454 0.889051H10.0454C10.0454 0.484854 10.3678 0.301372 10.5904 0.301372V2.30137ZM12.0454 0.889051V0.708665H10.0454V0.889051H12.0454ZM12.0454 0.708665C12.0454 -0.184882 11.2683 -0.703637 10.5904 -0.703637V1.29636C10.4657 1.29636 10.3436 1.25117 10.245 1.16365C10.1425 1.07272 10.0454 0.914033 10.0454 0.708665H12.0454ZM10.5904 -0.703637H8.35836V1.29636H10.5904V-0.703637Z" fill="#EFECE6" mask="url(#path-1-inside-1_64_939)"/>
<mask id="path-3-inside-2_64_939" fill="white">
<path d="M10.2635 2.64138C10.2635 2.64138 10.2066 2.64139 10.1782 2.61562C9.78011 2.37081 9.23987 2.37081 8.85602 2.61562C8.81336 2.64139 8.74229 2.65428 8.68542 2.61562C8.62855 2.58985 8.6001 2.53831 8.6001 2.48677V1.46886C8.6001 1.39155 8.67118 1.32715 8.75649 1.32715C8.84179 1.32715 8.91287 1.39155 8.91287 1.46886V2.24195C9.28252 2.08734 9.73748 2.08734 10.1071 2.24195V1.46886C10.1071 1.39155 10.1782 1.32715 10.2635 1.32715C10.3488 1.32715 10.4199 1.39155 10.4199 1.46886V2.48677C10.4199 2.48677 10.3914 2.58985 10.3346 2.61562C10.3061 2.61562 10.2919 2.6285 10.2635 2.6285V2.64138Z"/>
</mask>
<path d="M10.2635 2.64138C10.2635 2.64138 10.2066 2.64139 10.1782 2.61562C9.78011 2.37081 9.23987 2.37081 8.85602 2.61562C8.81336 2.64139 8.74229 2.65428 8.68542 2.61562C8.62855 2.58985 8.6001 2.53831 8.6001 2.48677V1.46886C8.6001 1.39155 8.67118 1.32715 8.75649 1.32715C8.84179 1.32715 8.91287 1.39155 8.91287 1.46886V2.24195C9.28252 2.08734 9.73748 2.08734 10.1071 2.24195V1.46886C10.1071 1.39155 10.1782 1.32715 10.2635 1.32715C10.3488 1.32715 10.4199 1.39155 10.4199 1.46886V2.48677C10.4199 2.48677 10.3914 2.58985 10.3346 2.61562C10.3061 2.61562 10.2919 2.6285 10.2635 2.6285V2.64138Z" fill="#EFECE6"/>
<path d="M10.2635 2.64138L10.2637 3.64138L11.2635 3.64113V2.64138H10.2635ZM10.1782 2.61562L10.8497 1.87465L10.781 1.81238L10.702 1.76381L10.1782 2.61562ZM8.85602 2.61562L9.37315 3.47153L9.38352 3.46526L9.39373 3.45875L8.85602 2.61562ZM8.68542 2.61562L9.24757 1.78859L9.17647 1.74026L9.09816 1.70478L8.68542 2.61562ZM8.91287 2.24195H7.91287V3.7442L9.29876 3.1645L8.91287 2.24195ZM10.1071 2.24195L9.72123 3.1645L11.1071 3.7442V2.24195H10.1071ZM10.4199 2.48677L11.3839 2.75264L11.4199 2.62214V2.48677H10.4199ZM10.3346 2.61562V3.61562H10.5506L10.7473 3.52647L10.3346 2.61562ZM10.2635 2.6285V1.6285H9.26349V2.6285H10.2635ZM10.2635 2.64138C10.2632 1.64138 10.2635 1.64138 10.2637 1.64138C10.2638 1.64138 10.264 1.64138 10.2641 1.64138C10.2644 1.64138 10.2647 1.64138 10.265 1.64138C10.2656 1.64138 10.2662 1.64138 10.2668 1.64138C10.268 1.64139 10.2691 1.64139 10.2703 1.6414C10.2727 1.64142 10.2751 1.64144 10.2775 1.64148C10.2822 1.64155 10.2871 1.64166 10.292 1.64181C10.3018 1.64211 10.3123 1.64261 10.3235 1.64338C10.3446 1.64485 10.3742 1.64774 10.4097 1.65416C10.4432 1.66023 10.4987 1.6724 10.5655 1.69832C10.6288 1.72292 10.7383 1.77367 10.8497 1.87465L9.50665 3.3566C9.73532 3.56383 9.98884 3.61049 10.0533 3.62216C10.1066 3.63181 10.1522 3.6363 10.1848 3.63857C10.2018 3.63975 10.217 3.64045 10.23 3.64085C10.2365 3.64105 10.2426 3.64118 10.2482 3.64127C10.251 3.64131 10.2537 3.64134 10.2563 3.64135C10.2576 3.64136 10.2589 3.64137 10.2601 3.64137C10.2607 3.64138 10.2613 3.64138 10.2619 3.64138C10.2622 3.64138 10.2625 3.64138 10.2628 3.64138C10.263 3.64138 10.2632 3.64138 10.2633 3.64138C10.2635 3.64138 10.2637 3.64138 10.2635 2.64138ZM10.702 1.76381C9.98868 1.32511 9.03592 1.31483 8.3183 1.7725L9.39373 3.45875C9.44383 3.4268 9.57154 3.41651 9.65434 3.46743L10.702 1.76381ZM8.33888 1.75972C8.45331 1.69058 8.58349 1.64863 8.72281 1.6412C8.87108 1.6333 9.06468 1.66428 9.24757 1.78859L8.12327 3.44266C8.60151 3.76773 9.11112 3.62985 9.37315 3.47153L8.33888 1.75972ZM9.09816 1.70478C9.41321 1.84754 9.6001 2.16174 9.6001 2.48677H7.6001C7.6001 2.91488 7.84389 3.33217 8.27267 3.52647L9.09816 1.70478ZM9.6001 2.48677V1.46886H7.6001V2.48677H9.6001ZM9.6001 1.46886C9.6001 2.03432 9.12843 2.32715 8.75649 2.32715V0.327148C8.21394 0.327148 7.6001 0.748791 7.6001 1.46886H9.6001ZM8.75649 2.32715C8.38455 2.32715 7.91287 2.03432 7.91287 1.46886H9.91287C9.91287 0.748791 9.29903 0.327148 8.75649 0.327148V2.32715ZM7.91287 1.46886V2.24195H9.91287V1.46886H7.91287ZM9.29876 3.1645C9.42151 3.11316 9.59848 3.11316 9.72123 3.1645L10.493 1.31941C9.87647 1.06152 9.14352 1.06152 8.52698 1.31941L9.29876 3.1645ZM11.1071 2.24195V1.46886H9.10712V2.24195H11.1071ZM11.1071 1.46886C11.1071 2.03415 10.6356 2.32715 10.2635 2.32715V0.327148C9.72075 0.327148 9.10712 0.748961 9.10712 1.46886H11.1071ZM10.2635 2.32715C9.89155 2.32715 9.41987 2.03432 9.41987 1.46886H11.4199C11.4199 0.748791 10.806 0.327148 10.2635 0.327148V2.32715ZM9.41987 1.46886V2.48677H11.4199V1.46886H9.41987ZM10.4199 2.48677C9.45587 2.2209 9.45592 2.22069 9.45598 2.22048C9.456 2.22041 9.45606 2.2202 9.4561 2.22006C9.45618 2.21978 9.45625 2.2195 9.45633 2.21922C9.45648 2.21866 9.45664 2.21811 9.45679 2.21755C9.4571 2.21645 9.45741 2.21535 9.45772 2.21427C9.45833 2.2121 9.45895 2.20996 9.45956 2.20786C9.46079 2.20365 9.46203 2.19952 9.46329 2.19544C9.46579 2.18738 9.46852 2.17904 9.47158 2.17038C9.47711 2.15472 9.48625 2.1307 9.50068 2.10127C9.51358 2.07497 9.54184 2.02122 9.59194 1.95878C9.63809 1.90127 9.7428 1.7859 9.92183 1.70478L10.7473 3.52647C11.1195 3.35781 11.2708 3.03398 11.2964 2.98179C11.3251 2.92338 11.3449 2.87197 11.3575 2.83617C11.3641 2.81745 11.3695 2.80086 11.3738 2.78706C11.3759 2.78011 11.3778 2.77374 11.3795 2.76801C11.3804 2.76514 11.3811 2.76242 11.3819 2.75986C11.3822 2.75858 11.3826 2.75734 11.3829 2.75613C11.3831 2.75553 11.3832 2.75494 11.3834 2.75436C11.3835 2.75406 11.3836 2.75378 11.3836 2.75349C11.3837 2.75335 11.3837 2.75313 11.3838 2.75306C11.3838 2.75285 11.3839 2.75264 10.4199 2.48677ZM10.3346 1.61562C10.2929 1.61562 10.2526 1.61801 10.214 1.62231C10.1754 1.62659 10.1409 1.63252 10.1109 1.63879C10.0813 1.64497 10.0569 1.65135 10.0399 1.65605C10.0244 1.66034 10.011 1.66445 10.01 1.66474C10.0056 1.66606 10.0138 1.66356 10.0238 1.66078C10.0353 1.65759 10.0542 1.65262 10.078 1.64764C10.1022 1.64258 10.1308 1.63766 10.163 1.63408C10.1953 1.63048 10.2289 1.6285 10.2635 1.6285V3.6285C10.3052 3.6285 10.3455 3.62612 10.3841 3.62182C10.4226 3.61753 10.4572 3.61161 10.4872 3.60534C10.5168 3.59915 10.5412 3.59278 10.5582 3.58807C10.5736 3.58379 10.5871 3.57968 10.588 3.57939C10.5924 3.57807 10.5843 3.58057 10.5743 3.58334C10.5627 3.58654 10.5439 3.59151 10.5201 3.59648C10.4958 3.60155 10.4673 3.60647 10.4351 3.61005C10.4028 3.61364 10.3692 3.61562 10.3346 3.61562V1.61562ZM9.26349 2.6285V2.64138H11.2635V2.6285H9.26349Z" fill="#EFECE6" mask="url(#path-3-inside-2_64_939)"/>
<mask id="path-5-inside-3_64_939" fill="white">
<path d="M10.2635 5.28281H8.75649C8.67118 5.28281 8.6001 5.21838 8.6001 5.14107V4.45818C8.6001 4.45818 8.62855 4.3551 8.68542 4.32933C8.74229 4.30356 8.79915 4.30356 8.85602 4.32933C9.23987 4.57414 9.79433 4.57414 10.1782 4.32933C10.2208 4.30356 10.2919 4.29067 10.3488 4.32933C10.4057 4.3551 10.4341 4.40664 10.4341 4.45818V5.14107C10.4341 5.21838 10.363 5.28281 10.2777 5.28281H10.2635ZM8.91287 4.99934H10.1071V4.703C9.73748 4.85761 9.28252 4.85761 8.91287 4.703V4.99934Z"/>
</mask>
<path d="M10.2635 5.28281H8.75649C8.67118 5.28281 8.6001 5.21838 8.6001 5.14107V4.45818C8.6001 4.45818 8.62855 4.3551 8.68542 4.32933C8.74229 4.30356 8.79915 4.30356 8.85602 4.32933C9.23987 4.57414 9.79433 4.57414 10.1782 4.32933C10.2208 4.30356 10.2919 4.29067 10.3488 4.32933C10.4057 4.3551 10.4341 4.40664 10.4341 4.45818V5.14107C10.4341 5.21838 10.363 5.28281 10.2777 5.28281H10.2635ZM8.91287 4.99934H10.1071V4.703C9.73748 4.85761 9.28252 4.85761 8.91287 4.703V4.99934Z" fill="#EFECE6"/>
<path d="M8.6001 4.45818L7.63614 4.19213L7.6001 4.32271V4.45818H8.6001ZM8.85602 4.32933L9.39373 3.4862L9.33366 3.44789L9.26876 3.41848L8.85602 4.32933ZM10.1782 4.32933L9.66105 3.47342L9.65069 3.47969L9.64047 3.4862L10.1782 4.32933ZM10.3488 4.32933L9.78666 5.15636L9.85776 5.20469L9.93606 5.24017L10.3488 4.32933ZM8.91287 4.99934H7.91287V5.99934H8.91287V4.99934ZM10.1071 4.99934V5.99934H11.1071V4.99934H10.1071ZM10.1071 4.703H11.1071V3.20075L9.72123 3.78045L10.1071 4.703ZM8.91287 4.703L9.29876 3.78045L7.91287 3.20075V4.703H8.91287ZM10.2635 4.28281H8.75649V6.28281H10.2635V4.28281ZM8.75649 4.28281C9.12861 4.28281 9.6001 4.57579 9.6001 5.14107H7.6001C7.6001 5.86097 8.21375 6.28281 8.75649 6.28281V4.28281ZM9.6001 5.14107V4.45818H7.6001V5.14107H9.6001ZM8.6001 4.45818C9.56405 4.72424 9.564 4.72445 9.56394 4.72466C9.56392 4.72473 9.56386 4.72494 9.56382 4.72508C9.56374 4.72536 9.56367 4.72564 9.56359 4.72592C9.56343 4.72648 9.56328 4.72703 9.56313 4.72758C9.56282 4.72869 9.56251 4.72978 9.5622 4.73087C9.56158 4.73304 9.56097 4.73517 9.56036 4.73728C9.55913 4.74148 9.55789 4.74562 9.55662 4.74969C9.55413 4.75775 9.55139 4.76609 9.54834 4.77474C9.54281 4.79039 9.53366 4.8144 9.51924 4.84381C9.50634 4.87011 9.47808 4.92383 9.42799 4.98624C9.38186 5.04373 9.27716 5.15906 9.09816 5.24017L8.27267 3.41848C7.90055 3.58711 7.74922 3.91085 7.72363 3.96302C7.69498 4.02143 7.67517 4.07282 7.66253 4.10861C7.65592 4.12732 7.65052 4.14392 7.64624 4.15771C7.64409 4.16466 7.64218 4.17103 7.64051 4.17676C7.63967 4.17963 7.63889 4.18234 7.63816 4.1849C7.6378 4.18619 7.63745 4.18743 7.63711 4.18863C7.63694 4.18923 7.63678 4.18983 7.63662 4.19041C7.63654 4.1907 7.63646 4.19099 7.63638 4.19127C7.63634 4.19142 7.63628 4.19163 7.63626 4.1917C7.6362 4.19191 7.63614 4.19213 8.6001 4.45818ZM9.09816 5.24017C9.00976 5.28024 8.89808 5.31 8.77072 5.31C8.64335 5.31 8.53168 5.28024 8.44327 5.24017L9.26876 3.41848C8.94957 3.27384 8.59187 3.27384 8.27267 3.41848L9.09816 5.24017ZM8.3183 5.17246C9.03013 5.62643 10.0041 5.62643 10.7159 5.17246L9.64047 3.4862C9.58458 3.52185 9.44962 3.52185 9.39373 3.4862L8.3183 5.17246ZM10.6953 5.18523C10.5808 5.2544 10.4507 5.29633 10.3114 5.30375C10.1632 5.31165 9.96958 5.2807 9.78666 5.15636L10.911 3.50229C10.4327 3.17723 9.9231 3.3151 9.66105 3.47342L10.6953 5.18523ZM9.93606 5.24017C9.62077 5.0973 9.4341 4.78293 9.4341 4.45818H11.4341C11.4341 4.03035 11.1906 3.61289 10.7616 3.41848L9.93606 5.24017ZM9.4341 4.45818V5.14107H11.4341V4.45818H9.4341ZM9.4341 5.14107C9.4341 4.57579 9.90559 4.28281 10.2777 4.28281V6.28281C10.8204 6.28281 11.4341 5.86097 11.4341 5.14107H9.4341ZM10.2777 4.28281H10.2635V6.28281H10.2777V4.28281ZM8.91287 5.99934H10.1071V3.99934H8.91287V5.99934ZM11.1071 4.99934V4.703H9.10712V4.99934H11.1071ZM9.72123 3.78045C9.59848 3.83179 9.42151 3.83179 9.29876 3.78045L8.52698 5.62554C9.14352 5.88343 9.87647 5.88343 10.493 5.62554L9.72123 3.78045ZM7.91287 4.703V4.99934H9.91287V4.703H7.91287Z" fill="#EFECE6" mask="url(#path-5-inside-3_64_939)"/>
<mask id="path-7-inside-4_64_939" fill="white">
<path d="M10.4056 6.44241H8.60003C8.15931 6.44241 7.81812 6.12031 7.81812 5.73377V5.68222C7.81812 5.30856 8.14509 5.01221 8.55738 5.01221H10.4625C10.8748 5.01221 11.2018 5.30856 11.2018 5.68222V5.73377C11.2018 6.1332 10.8463 6.44241 10.4198 6.44241H10.4056ZM8.55738 5.29567C8.32991 5.29567 8.13087 5.46318 8.13087 5.68222V5.73377C8.13087 5.96569 8.34413 6.15897 8.60003 6.15897H10.4056C10.6615 6.15897 10.8748 5.96569 10.8748 5.73377V5.68222C10.8748 5.47606 10.6899 5.29567 10.4483 5.29567H8.54318H8.55738Z"/>
</mask>
<path d="M10.4056 6.44241H8.60003C8.15931 6.44241 7.81812 6.12031 7.81812 5.73377V5.68222C7.81812 5.30856 8.14509 5.01221 8.55738 5.01221H10.4625C10.8748 5.01221 11.2018 5.30856 11.2018 5.68222V5.73377C11.2018 6.1332 10.8463 6.44241 10.4198 6.44241H10.4056ZM8.55738 5.29567C8.32991 5.29567 8.13087 5.46318 8.13087 5.68222V5.73377C8.13087 5.96569 8.34413 6.15897 8.60003 6.15897H10.4056C10.6615 6.15897 10.8748 5.96569 10.8748 5.73377V5.68222C10.8748 5.47606 10.6899 5.29567 10.4483 5.29567H8.54318H8.55738Z" fill="#EFECE6"/>
<path d="M10.4056 5.44241H8.60003V7.44241H10.4056V5.44241ZM8.60003 5.44241C8.62547 5.44241 8.67251 5.45275 8.71997 5.49629C8.76757 5.53999 8.81812 5.62295 8.81812 5.73377H6.81812C6.81812 6.75165 7.68954 7.44241 8.60003 7.44241V5.44241ZM8.81812 5.73377V5.68222H6.81812V5.73377H8.81812ZM8.81812 5.68222C8.81812 5.7997 8.76366 5.89461 8.70469 5.94805C8.64816 5.99928 8.59145 6.01221 8.55738 6.01221V4.01221C7.68762 4.01221 6.81812 4.66601 6.81812 5.68222H8.81812ZM8.55738 6.01221H10.4625V4.01221H8.55738V6.01221ZM10.4625 6.01221C10.4284 6.01221 10.3717 5.99928 10.3152 5.94805C10.2562 5.89461 10.2018 5.7997 10.2018 5.68222H12.2018C12.2018 4.66601 11.3322 4.01221 10.4625 4.01221V6.01221ZM10.2018 5.68222V5.73377H12.2018V5.68222H10.2018ZM10.2018 5.73377C10.2018 5.62243 10.2547 5.53669 10.3038 5.49271C10.3492 5.4521 10.3927 5.44241 10.4198 5.44241V7.44241C11.2913 7.44241 12.2018 6.78699 12.2018 5.73377H10.2018ZM10.4198 5.44241H10.4056V7.44241H10.4198V5.44241ZM8.55738 4.29567C7.89518 4.29567 7.13087 4.80026 7.13087 5.68222H9.13087C9.13087 5.89124 9.03254 6.05737 8.92185 6.1554C8.81572 6.2494 8.68601 6.29567 8.55738 6.29567V4.29567ZM7.13087 5.68222V5.73377H9.13087V5.68222H7.13087ZM7.13087 5.73377C7.13087 6.60829 7.8867 7.15897 8.60003 7.15897V5.15897C8.72365 5.15897 8.84487 5.20523 8.94102 5.29237C9.03772 5.38 9.13087 5.53276 9.13087 5.73377H7.13087ZM8.60003 7.15897H10.4056V5.15897H8.60003V7.15897ZM10.4056 7.15897C11.1189 7.15897 11.8748 6.60829 11.8748 5.73377H9.87477C9.87477 5.53276 9.96792 5.38 10.0646 5.29237C10.1608 5.20523 10.282 5.15897 10.4056 5.15897V7.15897ZM11.8748 5.73377V5.68222H9.87477V5.73377H11.8748ZM11.8748 5.68222C11.8748 4.85411 11.1699 4.29567 10.4483 4.29567V6.29567C10.21 6.29567 9.87477 6.09802 9.87477 5.68222H11.8748ZM10.4483 4.29567H8.54318V6.29567H10.4483V4.29567ZM8.54318 6.29567H8.55738V4.29567H8.54318V6.29567Z" fill="#EFECE6" mask="url(#path-7-inside-4_64_939)"/>
<path d="M10.1497 15.2814H8.85597C8.52898 15.2814 8.24463 15.0366 8.24463 14.7274V14.6887C8.24463 14.4053 8.50055 14.1733 8.81332 14.1733H10.1639C10.4767 14.1733 10.7326 14.4053 10.7326 14.6887V14.7274C10.7326 15.0237 10.4625 15.2814 10.1213 15.2814H10.1497ZM8.82753 14.4568C8.68536 14.4568 8.57164 14.5599 8.57164 14.6887V14.7274C8.57164 14.8691 8.69958 14.9851 8.85597 14.9851H10.1497C10.3061 14.9851 10.4341 14.8691 10.4341 14.7274V14.6887C10.4341 14.5599 10.3203 14.4568 10.1781 14.4568H8.82753Z" fill="#EFECE6"/>
<path d="M9.51005 4.81889C9.2115 4.81889 8.91294 4.74158 8.67126 4.57408C8.27318 4.32927 8.03149 3.90407 8.03149 3.46599C8.03149 3.02791 8.27318 2.6156 8.67126 2.3579C9.16885 2.04867 9.86549 2.04867 10.3631 2.3579C10.7612 2.60271 11.0028 3.02791 11.0028 3.46599C11.0028 3.90407 10.7612 4.31639 10.3631 4.57408C10.1214 4.7287 9.82284 4.81889 9.52429 4.81889H9.51005ZM9.51005 2.42233C9.26837 2.42233 9.04089 2.48677 8.84185 2.61561C8.52908 2.80888 8.34427 3.14389 8.34427 3.47889C8.34427 3.81389 8.52908 4.14889 8.84185 4.34216C9.23993 4.58697 9.78019 4.58697 10.164 4.34216C10.4768 4.14889 10.6617 3.81389 10.6617 3.47889C10.6617 3.14389 10.4768 2.80888 10.164 2.61561C9.96501 2.48677 9.73753 2.42233 9.49585 2.42233H9.51005Z" fill="#EFECE6"/>
<path d="M9.51 4.08438C9.36783 4.08438 9.23989 4.04573 9.12615 3.9813C8.94133 3.86534 8.8418 3.68495 8.8418 3.49168C8.8418 3.29841 8.95555 3.10513 9.12615 3.00205C9.35363 2.86032 9.65218 2.86032 9.87965 3.00205C10.0645 3.11801 10.164 3.29841 10.164 3.49168C10.164 3.68495 10.0503 3.87823 9.87965 3.9813C9.76592 4.04573 9.63796 4.08438 9.49579 4.08438H9.51ZM9.51 3.07936C9.4247 3.07936 9.32519 3.10514 9.2541 3.15668C9.14037 3.23399 9.06927 3.34995 9.06927 3.49168C9.06927 3.63341 9.14037 3.74937 9.2541 3.82667C9.39627 3.91687 9.60953 3.91687 9.76592 3.82667C9.87965 3.74937 9.95074 3.63341 9.95074 3.49168C9.95074 3.34995 9.87965 3.23399 9.76592 3.15668C9.69483 3.10514 9.60952 3.07936 9.51 3.07936Z" fill="#EFECE6"/>
<path d="M9.51 3.07936C9.4247 3.07936 9.32519 3.10514 9.2541 3.15668C9.14037 3.23399 9.06927 3.34995 9.06927 3.49168C9.06927 3.63341 9.14037 3.74937 9.2541 3.82667C9.39627 3.91687 9.60953 3.91687 9.76592 3.82667C9.87965 3.74937 9.95074 3.63341 9.95074 3.49168C9.95074 3.34995 9.87965 3.23399 9.76592 3.15668C9.69483 3.10514 9.60952 3.07936 9.51 3.07936Z" fill="#EFECE6"/>
<path d="M14.3581 3.77516C14.3581 3.77516 14.287 3.76228 14.2444 3.73651C12.4104 2.16457 10.946 3.234 10.8891 3.28554C10.8181 3.33707 10.7186 3.3242 10.6617 3.27266C10.6048 3.20823 10.619 3.11804 10.6759 3.0665C10.6901 3.05361 12.3962 1.77802 14.4576 3.53035C14.5145 3.58189 14.5287 3.67209 14.4576 3.73651C14.4292 3.76228 14.3865 3.78804 14.3439 3.78804L14.3581 3.77516Z" fill="#EFECE6"/>
<path d="M16.263 6.49391C16.263 6.49391 16.2062 6.49391 16.1777 6.49391C15.9929 6.46814 15.8365 6.39083 15.7228 6.24909L14.0452 4.27773C13.8746 4.07157 13.9172 3.77523 14.1447 3.62061L14.4148 3.42733C14.5286 3.35002 14.6565 3.32426 14.7987 3.33715C14.9408 3.35003 15.0546 3.41446 15.1399 3.51753L16.8175 5.4889C16.9312 5.61775 16.9739 5.78525 16.9597 5.95275C16.9312 6.12025 16.8459 6.26197 16.6895 6.36505C16.5616 6.45525 16.4194 6.49391 16.263 6.49391ZM14.7134 3.60772C14.7134 3.60772 14.6281 3.6206 14.5854 3.64637L14.3153 3.83965C14.23 3.90408 14.2158 4.02004 14.2727 4.09734L15.9502 6.06871C16.0071 6.14602 16.1066 6.18468 16.2062 6.19756C16.3057 6.19756 16.4052 6.18468 16.4905 6.13314C16.5758 6.0816 16.6185 5.99139 16.6327 5.9012C16.6327 5.81101 16.6327 5.72081 16.5616 5.65639L14.884 3.68502C14.884 3.68502 14.7987 3.62061 14.756 3.62061C14.756 3.62061 14.7418 3.62061 14.7276 3.62061L14.7134 3.60772Z" fill="#EFECE6"/>
<path d="M8.95546 14.3665C8.87016 14.3665 8.79907 14.3021 8.79907 14.2248V6.30065C8.79907 6.22334 8.87016 6.15894 8.95546 6.15894C9.04076 6.15894 9.11185 6.22334 9.11185 6.30065V14.2248C9.11185 14.3021 9.04076 14.3665 8.95546 14.3665Z" fill="#EFECE6"/>
<path d="M10.0502 14.3665C9.96488 14.3665 9.8938 14.3021 9.8938 14.2248V6.30065C9.8938 6.22334 9.96488 6.15894 10.0502 6.15894C10.1355 6.15894 10.2066 6.22334 10.2066 6.30065V14.2248C10.2066 14.3021 10.1355 14.3665 10.0502 14.3665Z" fill="#EFECE6"/>
<path d="M1.13615 18.0001C1.03663 18.0001 0.922901 17.9743 0.809165 17.9228C0.382654 17.6908 0.482174 17.2785 0.610128 17.0853L7.84659 5.68224C7.88924 5.61782 7.98877 5.59206 8.05985 5.63071C8.13094 5.66937 8.15936 5.75955 8.11671 5.82398L0.880255 17.227C0.880255 17.227 0.709647 17.5362 0.965553 17.6779C1.24989 17.8197 1.49158 17.562 1.52002 17.5362L8.61432 6.33938C8.65697 6.27495 8.75648 6.24917 8.82756 6.28783C8.89865 6.32648 8.92709 6.41669 8.88444 6.48111L1.77593 17.6908C1.6622 17.8326 1.42049 18.0001 1.13615 18.0001Z" fill="#EFECE6"/>
<path d="M17.8696 18C17.5853 18 17.3578 17.8325 17.2441 17.7036L10.1214 6.46811C10.0787 6.40369 10.1071 6.3135 10.1782 6.27485C10.2493 6.23619 10.3488 6.26195 10.3915 6.32638L17.5 17.5361C17.5 17.5361 17.7559 17.8067 18.0402 17.6521C18.2961 17.5232 18.154 17.2526 18.1255 17.2011L10.8891 5.7981C10.8464 5.73367 10.8749 5.64349 10.9459 5.60483C11.017 5.56618 11.1165 5.59194 11.1592 5.65636L18.3957 17.0594C18.5094 17.2526 18.6231 17.6778 18.1966 17.8969C18.0829 17.9613 17.9691 17.9742 17.8696 17.9742V18Z" fill="#EFECE6"/>
<path d="M8.50058 6.28779C8.50058 6.28779 8.41528 6.24914 8.41528 6.21049V5.72086C8.41528 5.72086 8.45793 5.64355 8.50058 5.64355C8.54323 5.64355 8.58588 5.68221 8.58588 5.72086V6.21049C8.58588 6.21049 8.54323 6.28779 8.50058 6.28779Z" fill="#EFECE6"/>
<path d="M8.89878 6.28779C8.89878 6.28779 8.81348 6.24914 8.81348 6.21049V5.72086C8.81348 5.72086 8.85612 5.64355 8.89878 5.64355C8.94143 5.64355 8.98407 5.68221 8.98407 5.72086V6.21049C8.98407 6.21049 8.94143 6.28779 8.89878 6.28779Z" fill="#EFECE6"/>
<path d="M9.29672 6.28779C9.29672 6.28779 9.21143 6.24914 9.21143 6.21049V5.72086C9.21143 5.72086 9.25407 5.64355 9.29672 5.64355C9.33938 5.64355 9.38202 5.68221 9.38202 5.72086V6.21049C9.38202 6.21049 9.33938 6.28779 9.29672 6.28779Z" fill="#EFECE6"/>
<path d="M9.69492 6.28779C9.69492 6.28779 9.60962 6.24914 9.60962 6.21049V5.72086C9.60962 5.72086 9.65227 5.64355 9.69492 5.64355C9.73757 5.64355 9.78022 5.68221 9.78022 5.72086V6.21049C9.78022 6.21049 9.73757 6.28779 9.69492 6.28779Z" fill="#EFECE6"/>
<path d="M10.0929 6.28779C10.0929 6.28779 10.0076 6.24914 10.0076 6.21049V5.72086C10.0076 5.72086 10.0502 5.64355 10.0929 5.64355C10.1355 5.64355 10.1782 5.68221 10.1782 5.72086V6.21049C10.1782 6.21049 10.1355 6.28779 10.0929 6.28779Z" fill="#EFECE6"/>
<path d="M10.4911 6.28779C10.4911 6.28779 10.4058 6.24914 10.4058 6.21049V5.72086C10.4058 5.72086 10.4484 5.64355 10.4911 5.64355C10.5337 5.64355 10.5764 5.68221 10.5764 5.72086V6.21049C10.5764 6.21049 10.5337 6.28779 10.4911 6.28779Z" fill="#EFECE6"/>
<path d="M8.82749 15.1008C8.82749 15.1008 8.74219 15.0622 8.74219 15.0235V14.7143C8.74219 14.7143 8.78484 14.637 8.82749 14.637C8.87014 14.637 8.91278 14.6756 8.91278 14.7143V15.0235C8.91278 15.0235 8.87014 15.1008 8.82749 15.1008Z" fill="#EFECE6"/>
<path d="M9.15439 15.1008C9.15439 15.1008 9.06909 15.0622 9.06909 15.0235V14.7143C9.06909 14.7143 9.11174 14.637 9.15439 14.637C9.19704 14.637 9.23971 14.6756 9.23971 14.7143V15.0235C9.23971 15.0235 9.19704 15.1008 9.15439 15.1008Z" fill="#EFECE6"/>
<path d="M9.4957 15.1008C9.4957 15.1008 9.4104 15.0622 9.4104 15.0235V14.7143C9.4104 14.7143 9.45305 14.637 9.4957 14.637C9.53835 14.637 9.581 14.6756 9.581 14.7143V15.0235C9.581 15.0235 9.53835 15.1008 9.4957 15.1008Z" fill="#EFECE6"/>
<path d="M9.82285 15.1008C9.82285 15.1008 9.73755 15.0622 9.73755 15.0235V14.7143C9.73755 14.7143 9.7802 14.637 9.82285 14.637C9.8655 14.637 9.90815 14.6756 9.90815 14.7143V15.0235C9.90815 15.0235 9.8655 15.1008 9.82285 15.1008Z" fill="#EFECE6"/>
<path d="M10.1639 15.1008C10.1639 15.1008 10.0786 15.0622 10.0786 15.0235V14.7143C10.0786 14.7143 10.1213 14.637 10.1639 14.637C10.2066 14.637 10.2492 14.6756 10.2492 14.7143V15.0235C10.2492 15.0235 10.2066 15.1008 10.1639 15.1008Z" fill="#EFECE6"/>
<path d="M8.35849 0.850511C8.35849 0.850511 8.27319 0.81186 8.27319 0.773205V0.219171C8.27319 0.219171 8.31584 0.141846 8.35849 0.141846C8.40114 0.141846 8.44379 0.180516 8.44379 0.219171V0.773205C8.44379 0.773205 8.40114 0.850511 8.35849 0.850511Z" fill="#EFECE6"/>
<path d="M8.81333 0.850511C8.81333 0.850511 8.72803 0.81186 8.72803 0.773205V0.219171C8.72803 0.219171 8.77067 0.141846 8.81333 0.141846C8.85598 0.141846 8.89862 0.180516 8.89862 0.219171V0.773205C8.89862 0.773205 8.85598 0.850511 8.81333 0.850511Z" fill="#EFECE6"/>
<path d="M9.2684 0.850511C9.2684 0.850511 9.18311 0.81186 9.18311 0.773205V0.219171C9.18311 0.219171 9.22575 0.141846 9.2684 0.141846C9.31106 0.141846 9.3537 0.180516 9.3537 0.219171V0.773205C9.3537 0.773205 9.31106 0.850511 9.2684 0.850511Z" fill="#EFECE6"/>
<path d="M9.72324 0.850511C9.72324 0.850511 9.63794 0.81186 9.63794 0.773205V0.219171C9.63794 0.219171 9.68059 0.141846 9.72324 0.141846C9.76589 0.141846 9.80854 0.180516 9.80854 0.219171V0.773205C9.80854 0.773205 9.76589 0.850511 9.72324 0.850511Z" fill="#EFECE6"/>
<path d="M10.1639 0.850511C10.1639 0.850511 10.0786 0.81186 10.0786 0.773205V0.219171C10.0786 0.219171 10.1213 0.141846 10.1639 0.141846C10.2066 0.141846 10.2492 0.180516 10.2492 0.219171V0.773205C10.2492 0.773205 10.2066 0.850511 10.1639 0.850511Z" fill="#EFECE6"/>
<path d="M10.619 0.850511C10.619 0.850511 10.5337 0.81186 10.5337 0.773205V0.219171C10.5337 0.219171 10.5763 0.141846 10.619 0.141846C10.6616 0.141846 10.7043 0.180516 10.7043 0.219171V0.773205C10.7043 0.773205 10.6616 0.850511 10.619 0.850511Z" fill="#EFECE6"/>
<path d="M1.97512 17.1238C1.97512 17.1238 1.94669 17.1238 1.93247 17.1238L1.12209 16.6857C1.12209 16.6857 1.06522 16.6213 1.09365 16.5826C1.12209 16.544 1.16474 16.5311 1.20739 16.5569L2.01777 16.9949C2.01777 16.9949 2.07463 17.0594 2.04619 17.098C2.03197 17.1238 2.00356 17.1367 1.97512 17.1367V17.1238Z" fill="#EFECE6"/>
<path d="M17.1446 17.2139C17.1446 17.2139 17.0878 17.2011 17.0735 17.1753C17.0451 17.1366 17.0736 17.0851 17.102 17.0722L17.8697 16.6599C17.8697 16.6599 17.9692 16.6599 17.9834 16.6857C18.0119 16.7243 17.9834 16.7759 17.955 16.7888L17.1873 17.2011C17.1873 17.2011 17.1589 17.2011 17.1446 17.2011V17.2139Z" fill="#EFECE6"/>
<path d="M15.7086 5.61785C15.7086 5.61785 15.666 5.61786 15.6375 5.59209C15.6091 5.55344 15.6091 5.51478 15.6375 5.48901L16.0072 5.20554C16.0072 5.20554 16.0925 5.17978 16.1209 5.20554C16.1493 5.2442 16.1493 5.28286 16.1209 5.30863L15.7513 5.59209C15.7513 5.59209 15.7228 5.60497 15.6944 5.60497L15.7086 5.61785Z" fill="#EFECE6"/>
<path d="M15.41 5.32146C15.41 5.32146 15.3674 5.32145 15.339 5.29569C15.3105 5.25703 15.3105 5.21839 15.339 5.19262L15.7086 4.90916C15.7086 4.90916 15.7939 4.88339 15.8223 4.90916C15.8508 4.94781 15.8508 4.98645 15.8223 5.01222L15.4527 5.29569C15.4527 5.29569 15.4242 5.30858 15.3958 5.30858L15.41 5.32146Z" fill="#EFECE6"/>
<path d="M15.1683 5.01213C15.1683 5.01213 15.1257 5.01215 15.0973 4.98638C15.0688 4.94772 15.0688 4.90907 15.0973 4.8833L15.4669 4.59983C15.4669 4.59983 15.5522 4.57406 15.5806 4.59983C15.6091 4.63849 15.6091 4.67714 15.5806 4.70291L15.211 4.98638C15.211 4.98638 15.1825 4.99926 15.1541 4.99926L15.1683 5.01213Z" fill="#EFECE6"/>
<path d="M10.5904 14.6629C10.5904 14.6629 10.4909 14.6371 10.4625 14.5985C10.4198 14.534 10.434 14.4439 10.5051 14.4052L13.9172 12.3179C13.9883 12.2792 14.0878 12.2921 14.1304 12.3565C14.1731 12.421 14.1589 12.5111 14.0878 12.5498L10.6757 14.6371C10.6757 14.6371 10.6189 14.6629 10.5904 14.6629Z" fill="#EFECE6"/>
<path d="M8.41536 14.6629C8.41536 14.6629 8.35849 14.6629 8.33006 14.6371L4.91796 12.5498C4.84687 12.5111 4.83266 12.421 4.87531 12.3565C4.91796 12.2921 5.01747 12.2792 5.08856 12.3179L8.50065 14.4052C8.57174 14.4439 8.58595 14.534 8.5433 14.5985C8.51487 14.6371 8.45801 14.6629 8.41536 14.6629Z" fill="#EFECE6"/>
</svg>
